<?xml version="1.0" encoding="UTF-8" standalone="no"?>
<!DOCTYPE svg PUBLIC "-//W3C//DTD SVG 1.1//EN"
 "http://www.w3.org/Graphics/SVG/1.1/DTD/svg11.dtd">
<!-- Generated by graphviz version 2.38.0 (20140413.2041)
 -->
<!-- Title: controllers_diagram Pages: 1 -->
<svg width="598pt" height="446pt"
 viewBox="0.00 0.00 597.50 446.00" xmlns="http://www.w3.org/2000/svg" xmlns:xlink="http://www.w3.org/1999/xlink">
<g id="graph0" class="graph" transform="scale(1 1) rotate(0) translate(214.5 247)">
<title>controllers_diagram</title>
<polygon fill="none" stroke="none" points="-214.5,199 -214.5,-247 383,-247 383,199 -214.5,199"/>
<!-- _diagram_info -->
<g id="node1" class="node"><title>_diagram_info</title>
<text text-anchor="start" x="173" y="-228.6" font-family="Times,serif" font-size="13.00">Controllers diagram</text>
<text text-anchor="start" x="173" y="-214.6" font-family="Times,serif" font-size="13.00">Date: Dec 10 2017 &#45; 16:30</text>
<text text-anchor="start" x="173" y="-200.6" font-family="Times,serif" font-size="13.00">Migration version: 20171210171422</text>
<text text-anchor="start" x="173" y="-186.6" font-family="Times,serif" font-size="13.00">Generated by RailRoady 1.5.3</text>
<text text-anchor="start" x="173" y="-172.6" font-family="Times,serif" font-size="13.00">http://railroady.prestonlee.com</text>
</g>
<!-- ControlUsersController -->
<g id="node2" class="node"><title>ControlUsersController</title>
<path fill="none" stroke="black" d="M87,194.5C87,194.5 207,194.5 207,194.5 213,194.5 219,188.5 219,182.5 219,182.5 219,113.5 219,113.5 219,107.5 213,101.5 207,101.5 207,101.5 87,101.5 87,101.5 81,101.5 75,107.5 75,113.5 75,113.5 75,182.5 75,182.5 75,188.5 81,194.5 87,194.5"/>
<text text-anchor="middle" x="147" y="116.7" font-family="Times,serif" font-size="14.00">ControlUsersController</text>
<polyline fill="none" stroke="black" points="75,124.5 219,124.5 "/>
<text text-anchor="start" x="83" y="139.7" font-family="Times,serif" font-size="14.00">index</text>
<polyline fill="none" stroke="black" points="75,147.5 219,147.5 "/>
<polyline fill="none" stroke="black" points="75,171.5 219,171.5 "/>
<text text-anchor="start" x="83" y="186.7" font-family="Times,serif" font-size="14.00">_layout</text>
</g>
<!-- ApplicationController -->
<g id="node3" class="node"><title>ApplicationController</title>
<path fill="none" stroke="black" d="M-78,-120.5C-78,-120.5 34,-120.5 34,-120.5 40,-120.5 46,-126.5 46,-132.5 46,-132.5 46,-217.5 46,-217.5 46,-223.5 40,-229.5 34,-229.5 34,-229.5 -78,-229.5 -78,-229.5 -84,-229.5 -90,-223.5 -90,-217.5 -90,-217.5 -90,-132.5 -90,-132.5 -90,-126.5 -84,-120.5 -78,-120.5"/>
<text text-anchor="middle" x="-22" y="-214.3" font-family="Times,serif" font-size="14.00">ApplicationController</text>
<polyline fill="none" stroke="black" points="-90,-206.5 46,-206.5 "/>
<polyline fill="none" stroke="black" points="-90,-182.5 46,-182.5 "/>
<polyline fill="none" stroke="black" points="-90,-158.5 46,-158.5 "/>
<text text-anchor="start" x="-82" y="-143.3" font-family="Times,serif" font-size="14.00">_layout</text>
<text text-anchor="start" x="-82" y="-128.3" font-family="Times,serif" font-size="14.00">user_not_authorized</text>
</g>
<!-- WelcomeController -->
<g id="node4" class="node"><title>WelcomeController</title>
<path fill="none" stroke="black" d="M-198.5,-0.5C-198.5,-0.5 -97.5,-0.5 -97.5,-0.5 -91.5,-0.5 -85.5,-6.5 -85.5,-12.5 -85.5,-12.5 -85.5,-81.5 -85.5,-81.5 -85.5,-87.5 -91.5,-93.5 -97.5,-93.5 -97.5,-93.5 -198.5,-93.5 -198.5,-93.5 -204.5,-93.5 -210.5,-87.5 -210.5,-81.5 -210.5,-81.5 -210.5,-12.5 -210.5,-12.5 -210.5,-6.5 -204.5,-0.5 -198.5,-0.5"/>
<text text-anchor="middle" x="-148" y="-78.3" font-family="Times,serif" font-size="14.00">WelcomeController</text>
<polyline fill="none" stroke="black" points="-210.5,-70.5 -85.5,-70.5 "/>
<text text-anchor="start" x="-202.5" y="-55.3" font-family="Times,serif" font-size="14.00">index</text>
<polyline fill="none" stroke="black" points="-210.5,-47.5 -85.5,-47.5 "/>
<polyline fill="none" stroke="black" points="-210.5,-23.5 -85.5,-23.5 "/>
<text text-anchor="start" x="-202.5" y="-8.3" font-family="Times,serif" font-size="14.00">_layout</text>
</g>
<!-- FaqController -->
<g id="node5" class="node"><title>FaqController</title>
<path fill="none" stroke="black" d="M-168,119.5C-168,119.5 -100,119.5 -100,119.5 -94,119.5 -88,113.5 -88,107.5 -88,107.5 -88,38.5 -88,38.5 -88,32.5 -94,26.5 -100,26.5 -100,26.5 -168,26.5 -168,26.5 -174,26.5 -180,32.5 -180,38.5 -180,38.5 -180,107.5 -180,107.5 -180,113.5 -174,119.5 -168,119.5"/>
<text text-anchor="middle" x="-134" y="41.7" font-family="Times,serif" font-size="14.00">FaqController</text>
<polyline fill="none" stroke="black" points="-180,49.5 -88,49.5 "/>
<text text-anchor="start" x="-172" y="64.7" font-family="Times,serif" font-size="14.00">index</text>
<polyline fill="none" stroke="black" points="-180,72.5 -88,72.5 "/>
<polyline fill="none" stroke="black" points="-180,96.5 -88,96.5 "/>
<text text-anchor="start" x="-172" y="111.7" font-family="Times,serif" font-size="14.00">_layout</text>
</g>
<!-- DonorsController -->
<g id="node6" class="node"><title>DonorsController</title>
<path fill="none" stroke="black" d="M-48,119.5C-48,119.5 40,119.5 40,119.5 46,119.5 52,113.5 52,107.5 52,107.5 52,-81.5 52,-81.5 52,-87.5 46,-93.5 40,-93.5 40,-93.5 -48,-93.5 -48,-93.5 -54,-93.5 -60,-87.5 -60,-81.5 -60,-81.5 -60,107.5 -60,107.5 -60,113.5 -54,119.5 -48,119.5"/>
<text text-anchor="middle" x="-4" y="-78.3" font-family="Times,serif" font-size="14.00">DonorsController</text>
<polyline fill="none" stroke="black" points="-60,-70.5 52,-70.5 "/>
<text text-anchor="start" x="-52" y="-55.3" font-family="Times,serif" font-size="14.00">create</text>
<text text-anchor="start" x="-52" y="-40.3" font-family="Times,serif" font-size="14.00">destroy</text>
<text text-anchor="start" x="-52" y="-25.3" font-family="Times,serif" font-size="14.00">edit</text>
<text text-anchor="start" x="-52" y="-10.3" font-family="Times,serif" font-size="14.00">index</text>
<text text-anchor="start" x="-52" y="4.7" font-family="Times,serif" font-size="14.00">new</text>
<text text-anchor="start" x="-52" y="19.7" font-family="Times,serif" font-size="14.00">show</text>
<text text-anchor="start" x="-52" y="34.7" font-family="Times,serif" font-size="14.00">update</text>
<polyline fill="none" stroke="black" points="-60,42.5 52,42.5 "/>
<polyline fill="none" stroke="black" points="-60,66.5 52,66.5 "/>
<text text-anchor="start" x="-52" y="81.7" font-family="Times,serif" font-size="14.00">_layout</text>
<text text-anchor="start" x="-52" y="96.7" font-family="Times,serif" font-size="14.00">donor_params</text>
<text text-anchor="start" x="-52" y="111.7" font-family="Times,serif" font-size="14.00">set_donor</text>
</g>
<!-- SanguesController -->
<g id="node7" class="node"><title>SanguesController</title>
<path fill="none" stroke="black" d="M87.5,74.5C87.5,74.5 180.5,74.5 180.5,74.5 186.5,74.5 192.5,68.5 192.5,62.5 192.5,62.5 192.5,-126.5 192.5,-126.5 192.5,-132.5 186.5,-138.5 180.5,-138.5 180.5,-138.5 87.5,-138.5 87.5,-138.5 81.5,-138.5 75.5,-132.5 75.5,-126.5 75.5,-126.5 75.5,62.5 75.5,62.5 75.5,68.5 81.5,74.5 87.5,74.5"/>
<text text-anchor="middle" x="134" y="-123.3" font-family="Times,serif" font-size="14.00">SanguesController</text>
<polyline fill="none" stroke="black" points="75.5,-115.5 192.5,-115.5 "/>
<text text-anchor="start" x="83.5" y="-100.3" font-family="Times,serif" font-size="14.00">create</text>
<text text-anchor="start" x="83.5" y="-85.3" font-family="Times,serif" font-size="14.00">destroy</text>
<text text-anchor="start" x="83.5" y="-70.3" font-family="Times,serif" font-size="14.00">edit</text>
<text text-anchor="start" x="83.5" y="-55.3" font-family="Times,serif" font-size="14.00">index</text>
<text text-anchor="start" x="83.5" y="-40.3" font-family="Times,serif" font-size="14.00">new</text>
<text text-anchor="start" x="83.5" y="-25.3" font-family="Times,serif" font-size="14.00">show</text>
<text text-anchor="start" x="83.5" y="-10.3" font-family="Times,serif" font-size="14.00">update</text>
<polyline fill="none" stroke="black" points="75.5,-2.5 192.5,-2.5 "/>
<polyline fill="none" stroke="black" points="75.5,21.5 192.5,21.5 "/>
<text text-anchor="start" x="83.5" y="36.7" font-family="Times,serif" font-size="14.00">_layout</text>
<text text-anchor="start" x="83.5" y="51.7" font-family="Times,serif" font-size="14.00">sangue_params</text>
<text text-anchor="start" x="83.5" y="66.7" font-family="Times,serif" font-size="14.00">set_sangue</text>
</g>
</g>
</svg>
