<?xml version="1.0" encoding="UTF-8" standalone="no"?>
<!DOCTYPE svg PUBLIC "-//W3C//DTD SVG 1.1//EN"
 "http://www.w3.org/Graphics/SVG/1.1/DTD/svg11.dtd">
<!-- Generated by graphviz version 2.38.0 (20140413.2041)
 -->
<!-- Title: models_diagram Pages: 1 -->
<svg width="467pt" height="230pt"
 viewBox="0.00 0.00 467.34 230.00" xmlns="http://www.w3.org/2000/svg" xmlns:xlink="http://www.w3.org/1999/xlink">
<g id="graph0" class="graph" transform="scale(1 1) rotate(0) translate(4 226)">
<title>models_diagram</title>
<polygon fill="none" stroke="none" points="-4,4 -4,-226 463.343,-226 463.343,4 -4,4"/>
<!-- _diagram_info -->
<g id="node1" class="node"><title>_diagram_info</title>
<text text-anchor="start" x="8" y="-207.6" font-family="Times,serif" font-size="13.00">Models diagram</text>
<text text-anchor="start" x="8" y="-193.6" font-family="Times,serif" font-size="13.00">Date: Dec 10 2017 &#45; 16:29</text>
<text text-anchor="start" x="8" y="-179.6" font-family="Times,serif" font-size="13.00">Migration version: 20171210171422</text>
<text text-anchor="start" x="8" y="-165.6" font-family="Times,serif" font-size="13.00">Generated by RailRoady 1.5.3</text>
<text text-anchor="start" x="8" y="-151.6" font-family="Times,serif" font-size="13.00">http://railroady.prestonlee.com</text>
</g>
<!-- Donor -->
<g id="node2" class="node"><title>Donor</title>
<ellipse fill="none" stroke="black" cx="259" cy="-90" rx="33.2948" ry="18"/>
<text text-anchor="middle" x="259" y="-86.3" font-family="Times,serif" font-size="14.00">Donor</text>
</g>
<!-- Sangue -->
<g id="node3" class="node"><title>Sangue</title>
<ellipse fill="none" stroke="black" cx="259" cy="-18" rx="36.2938" ry="18"/>
<text text-anchor="middle" x="259" y="-14.3" font-family="Times,serif" font-size="14.00">Sangue</text>
</g>
<!-- Donor&#45;&gt;Sangue -->
<g id="edge1" class="edge"><title>Donor&#45;&gt;Sangue</title>
<path fill="none" stroke="#0e6e38" d="M259,-63.6398C259,-58.0629 259,-52.1319 259,-46.4761"/>
<ellipse fill="none" stroke="#0e6e38" cx="259" cy="-67.6966" rx="4" ry="4"/>
<polygon fill="#0e6e38" stroke="#0e6e38" points="259,-46.1043 263.5,-36.1043 259,-41.1043 259,-36.1043 259,-36.1043 259,-36.1043 259,-41.1043 254.5,-36.1044 259,-46.1043 259,-46.1043"/>
</g>
<!-- ApplicationRecord -->
<g id="node4" class="node"><title>ApplicationRecord</title>
<ellipse fill="none" stroke="black" cx="382" cy="-183" rx="77.1866" ry="18"/>
<text text-anchor="middle" x="382" y="-179.3" font-family="Times,serif" font-size="14.00">ApplicationRecord</text>
</g>
<!-- User -->
<g id="node5" class="node"><title>User</title>
<ellipse fill="none" stroke="black" cx="259" cy="-183" rx="27.0966" ry="18"/>
<text text-anchor="middle" x="259" y="-179.3" font-family="Times,serif" font-size="14.00">User</text>
</g>
<!-- User&#45;&gt;Donor -->
<g id="edge2" class="edge"><title>User&#45;&gt;Donor</title>
<path fill="none" stroke="#8b3337" d="M259,-156.729C259,-144.118 259,-128.905 259,-116.292"/>
<ellipse fill="none" stroke="#8b3337" cx="259" cy="-160.884" rx="4" ry="4"/>
<ellipse fill="#8b3337" stroke="#8b3337" cx="259" cy="-112.04" rx="4" ry="4"/>
</g>
</g>
</svg>
