<?xml version="1.0" encoding="UTF-8" standalone="no"?>
<!DOCTYPE svg PUBLIC "-//W3C//DTD SVG 1.1//EN"
 "http://www.w3.org/Graphics/SVG/1.1/DTD/svg11.dtd">
<!-- Generated by graphviz version 2.38.0 (20140413.2041)
 -->
<!-- Title: models_diagram Pages: 1 -->
<svg width="612pt" height="626pt"
 viewBox="0.00 0.00 612.34 626.00" xmlns="http://www.w3.org/2000/svg" xmlns:xlink="http://www.w3.org/1999/xlink">
<g id="graph0" class="graph" transform="scale(1 1) rotate(0) translate(4 622)">
<title>models_diagram</title>
<polygon fill="none" stroke="none" points="-4,4 -4,-622 608.343,-622 608.343,4 -4,4"/>
<!-- _diagram_info -->
<g id="node1" class="node"><title>_diagram_info</title>
<text text-anchor="start" x="8" y="-521.6" font-family="Times,serif" font-size="13.00">Models diagram</text>
<text text-anchor="start" x="8" y="-507.6" font-family="Times,serif" font-size="13.00">Date: Dec 10 2017 &#45; 16:29</text>
<text text-anchor="start" x="8" y="-493.6" font-family="Times,serif" font-size="13.00">Migration version: 20171210171422</text>
<text text-anchor="start" x="8" y="-479.6" font-family="Times,serif" font-size="13.00">Generated by RailRoady 1.5.3</text>
<text text-anchor="start" x="8" y="-465.6" font-family="Times,serif" font-size="13.00">http://railroady.prestonlee.com</text>
</g>
<!-- Donor -->
<g id="node2" class="node"><title>Donor</title>
<path fill="none" stroke="black" d="M270.5,-143.5C270.5,-143.5 393.5,-143.5 393.5,-143.5 399.5,-143.5 405.5,-149.5 405.5,-155.5 405.5,-155.5 405.5,-327.5 405.5,-327.5 405.5,-333.5 399.5,-339.5 393.5,-339.5 393.5,-339.5 270.5,-339.5 270.5,-339.5 264.5,-339.5 258.5,-333.5 258.5,-327.5 258.5,-327.5 258.5,-155.5 258.5,-155.5 258.5,-149.5 264.5,-143.5 270.5,-143.5"/>
<text text-anchor="middle" x="332" y="-324.3" font-family="Times,serif" font-size="14.00">Donor</text>
<polyline fill="none" stroke="black" points="258.5,-316.5 405.5,-316.5 "/>
<text text-anchor="start" x="266.5" y="-301.3" font-family="Times,serif" font-size="14.00">id :INTEGER</text>
<text text-anchor="start" x="266.5" y="-286.3" font-family="Times,serif" font-size="14.00">nome :varchar</text>
<text text-anchor="start" x="266.5" y="-271.3" font-family="Times,serif" font-size="14.00">idade :integer</text>
<text text-anchor="start" x="266.5" y="-256.3" font-family="Times,serif" font-size="14.00">email :varchar</text>
<text text-anchor="start" x="266.5" y="-241.3" font-family="Times,serif" font-size="14.00">telefone :varchar</text>
<text text-anchor="start" x="266.5" y="-226.3" font-family="Times,serif" font-size="14.00">cpf :varchar</text>
<text text-anchor="start" x="266.5" y="-211.3" font-family="Times,serif" font-size="14.00">endereco :varchar</text>
<text text-anchor="start" x="266.5" y="-196.3" font-family="Times,serif" font-size="14.00">tipo_sanguineo :varchar</text>
<text text-anchor="start" x="266.5" y="-181.3" font-family="Times,serif" font-size="14.00">user_id :integer</text>
<text text-anchor="start" x="266.5" y="-166.3" font-family="Times,serif" font-size="14.00">created_at :datetime</text>
<text text-anchor="start" x="266.5" y="-151.3" font-family="Times,serif" font-size="14.00">updated_at :datetime</text>
</g>
<!-- Sangue -->
<g id="node3" class="node"><title>Sangue</title>
<path fill="none" stroke="black" d="M278.5,-0.5C278.5,-0.5 385.5,-0.5 385.5,-0.5 391.5,-0.5 397.5,-6.5 397.5,-12.5 397.5,-12.5 397.5,-94.5 397.5,-94.5 397.5,-100.5 391.5,-106.5 385.5,-106.5 385.5,-106.5 278.5,-106.5 278.5,-106.5 272.5,-106.5 266.5,-100.5 266.5,-94.5 266.5,-94.5 266.5,-12.5 266.5,-12.5 266.5,-6.5 272.5,-0.5 278.5,-0.5"/>
<text text-anchor="middle" x="332" y="-91.3" font-family="Times,serif" font-size="14.00">Sangue</text>
<polyline fill="none" stroke="black" points="266.5,-83.5 397.5,-83.5 "/>
<text text-anchor="start" x="274.5" y="-68.3" font-family="Times,serif" font-size="14.00">id :INTEGER</text>
<text text-anchor="start" x="274.5" y="-53.3" font-family="Times,serif" font-size="14.00">tipo :varchar</text>
<text text-anchor="start" x="274.5" y="-38.3" font-family="Times,serif" font-size="14.00">quantidade :integer</text>
<text text-anchor="start" x="274.5" y="-23.3" font-family="Times,serif" font-size="14.00">created_at :datetime</text>
<text text-anchor="start" x="274.5" y="-8.3" font-family="Times,serif" font-size="14.00">updated_at :datetime</text>
</g>
<!-- Donor&#45;&gt;Sangue -->
<g id="edge1" class="edge"><title>Donor&#45;&gt;Sangue</title>
<path fill="none" stroke="#a5b4b0" d="M332,-135.41C332,-129.041 332,-122.749 332,-116.657"/>
<ellipse fill="none" stroke="#a5b4b0" cx="332" cy="-139.414" rx="4" ry="4"/>
<polygon fill="#a5b4b0" stroke="#a5b4b0" points="332,-116.613 336.5,-106.613 332,-111.613 332,-106.613 332,-106.613 332,-106.613 332,-111.613 327.5,-106.613 332,-116.613 332,-116.613"/>
</g>
<!-- ApplicationRecord -->
<g id="node4" class="node"><title>ApplicationRecord</title>
<ellipse fill="none" stroke="black" cx="527" cy="-497" rx="77.1866" ry="18"/>
<text text-anchor="middle" x="527" y="-493.3" font-family="Times,serif" font-size="14.00">ApplicationRecord</text>
</g>
<!-- User -->
<g id="node5" class="node"><title>User</title>
<path fill="none" stroke="black" d="M244,-376.5C244,-376.5 420,-376.5 420,-376.5 426,-376.5 432,-382.5 432,-388.5 432,-388.5 432,-605.5 432,-605.5 432,-611.5 426,-617.5 420,-617.5 420,-617.5 244,-617.5 244,-617.5 238,-617.5 232,-611.5 232,-605.5 232,-605.5 232,-388.5 232,-388.5 232,-382.5 238,-376.5 244,-376.5"/>
<text text-anchor="middle" x="332" y="-602.3" font-family="Times,serif" font-size="14.00">User</text>
<polyline fill="none" stroke="black" points="232,-594.5 432,-594.5 "/>
<text text-anchor="start" x="240" y="-579.3" font-family="Times,serif" font-size="14.00">id :INTEGER</text>
<text text-anchor="start" x="240" y="-564.3" font-family="Times,serif" font-size="14.00">email :varchar</text>
<text text-anchor="start" x="240" y="-549.3" font-family="Times,serif" font-size="14.00">encrypted_password :varchar</text>
<text text-anchor="start" x="240" y="-534.3" font-family="Times,serif" font-size="14.00">reset_password_token :varchar</text>
<text text-anchor="start" x="240" y="-519.3" font-family="Times,serif" font-size="14.00">reset_password_sent_at :datetime</text>
<text text-anchor="start" x="240" y="-504.3" font-family="Times,serif" font-size="14.00">remember_created_at :datetime</text>
<text text-anchor="start" x="240" y="-489.3" font-family="Times,serif" font-size="14.00">sign_in_count :integer</text>
<text text-anchor="start" x="240" y="-474.3" font-family="Times,serif" font-size="14.00">current_sign_in_at :datetime</text>
<text text-anchor="start" x="240" y="-459.3" font-family="Times,serif" font-size="14.00">last_sign_in_at :datetime</text>
<text text-anchor="start" x="240" y="-444.3" font-family="Times,serif" font-size="14.00">current_sign_in_ip :varchar</text>
<text text-anchor="start" x="240" y="-429.3" font-family="Times,serif" font-size="14.00">last_sign_in_ip :varchar</text>
<text text-anchor="start" x="240" y="-414.3" font-family="Times,serif" font-size="14.00">created_at :datetime</text>
<text text-anchor="start" x="240" y="-399.3" font-family="Times,serif" font-size="14.00">updated_at :datetime</text>
<text text-anchor="start" x="240" y="-384.3" font-family="Times,serif" font-size="14.00">role :integer</text>
</g>
<!-- User&#45;&gt;Donor -->
<g id="edge2" class="edge"><title>User&#45;&gt;Donor</title>
<path fill="none" stroke="#b1b2aa" d="M332,-368.218C332,-361.448 332,-354.683 332,-347.999"/>
<ellipse fill="none" stroke="#b1b2aa" cx="332" cy="-372.302" rx="4" ry="4"/>
<ellipse fill="#b1b2aa" stroke="#b1b2aa" cx="332" cy="-343.581" rx="4" ry="4"/>
</g>
</g>
</svg>
